#define desk_toggled_width 16
#define desk_toggled_height 16
static unsigned char desk_toggled_bits[] = {
   0x00, 0x00, 0xfe, 0x7f, 0x01, 0x80, 0x01, 0x80, 0x71, 0x8e, 0x71, 0x8e,
   0x71, 0x8e, 0x01, 0x80, 0x01, 0x80, 0x71, 0x8e, 0x71, 0x8e, 0x71, 0x8e,
   0x01, 0x80, 0x01, 0x80, 0xfe, 0x7f, 0x00, 0x00 };
