#define max_toggled_width 14
#define max_toggled_height 14
static unsigned char max_toggled_bits[] = {
   0x00, 0x00, 0x00, 0x00, 0x00, 0x00, 0xf8, 0x01, 0xf8, 0x01, 0x08, 0x07,
   0x08, 0x07, 0x08, 0x05, 0xf8, 0x05, 0x20, 0x04, 0xe0, 0x07, 0x00, 0x00,
   0x00, 0x00, 0x00, 0x00 };
